<?xml version="1.0" encoding="UTF-8" ?>
<svg width="889" height="889" viewBox="0 0 889 889" version="1.1" xmlns="http://www.w3.org/2000/svg">

<circle fill="#878c83" cx="50%" cy="50%" r="45%" />

<path fill="#f9f6ea" d="M 584.10 88.10 C 590.88 86.42 600.22 85.72 604.00 92.97 C 612.60 111.98 604.02 133.69 609.82 153.25 C 617.75 170.14 628.20 185.71 636.73 202.30 C 647.03 220.33 653.47 240.16 660.39 259.65 C 663.90 270.57 667.07 281.64 669.26 292.92 C 655.68 298.04 642.31 304.92 633.38 316.80 C 611.31 272.98 572.30 237.71 525.57 222.17 C 528.44 209.56 532.82 197.22 533.93 184.27 C 530.24 185.43 526.70 187.14 523.91 189.90 C 514.81 198.13 506.26 206.97 496.98 215.01 C 488.29 214.34 479.63 213.30 471.01 212.07 C 470.01 195.46 473.50 178.29 468.91 162.06 C 461.81 141.86 426.54 143.76 421.97 164.99 C 419.85 179.01 421.24 193.32 421.66 207.44 C 421.46 210.33 422.50 213.88 420.70 216.54 C 409.41 220.49 397.47 222.43 386.51 227.36 C 362.70 236.47 340.88 250.56 322.83 268.57 C 313.59 267.35 304.91 263.63 296.91 259.00 C 290.07 255.22 283.28 250.48 275.23 249.99 C 279.57 262.41 285.95 274.02 291.36 285.99 C 277.34 281.57 264.87 273.11 250.53 269.58 C 235.94 265.90 221.63 279.66 222.09 294.05 C 220.75 304.83 228.94 314.43 238.14 318.92 C 250.35 324.68 263.42 328.41 275.39 334.71 C 274.01 337.03 272.83 339.60 270.74 341.39 C 262.07 340.54 254.29 336.35 246.01 333.99 C 230.46 329.10 214.52 324.64 198.12 324.21 C 208.54 343.91 230.90 352.53 244.70 369.32 C 248.23 373.07 250.10 377.96 251.89 382.70 C 237.51 392.40 219.12 388.00 203.40 393.54 C 200.40 394.66 198.08 396.95 195.69 399.00 C 207.52 410.04 225.61 408.02 239.13 415.89 C 244.19 418.86 249.89 422.59 251.38 428.67 C 253.91 436.72 250.27 444.83 247.12 452.12 C 242.68 460.91 237.97 469.63 232.30 477.70 C 219.41 470.95 205.38 465.75 190.56 466.43 C 177.39 466.95 164.15 472.35 155.36 482.35 C 148.91 488.58 144.96 496.71 141.05 504.64 C 128.39 492.38 120.28 476.35 112.06 460.97 C 88.88 416.62 79.54 366.94 69.59 318.39 C 68.11 309.01 64.01 300.27 58.22 292.79 C 43.74 274.66 24.52 260.34 12.92 239.97 C 16.07 234.79 20.36 229.44 26.97 229.00 C 43.72 226.20 60.64 229.97 77.44 230.60 C 83.28 231.33 89.05 229.67 94.41 227.51 C 117.88 218.01 139.96 205.55 162.83 194.75 C 198.72 176.80 235.76 160.90 274.25 149.41 C 353.16 126.07 435.69 119.33 517.46 114.65 C 528.50 113.23 540.62 114.32 550.55 108.51 C 561.08 100.80 571.39 91.96 584.10 88.10 Z" />

<path fill="#7ca645" d="M 648.85 321.96 C 646.48 326.15 641.47 331.25 644.74 336.20 C 681.95 393.50 718.92 450.98 755.10 508.94 C 758.32 517.77 767.90 512.98 774.59 512.01 C 780.37 509.26 786.11 506.27 790.72 501.72 C 802.43 488.49 803.31 467.73 794.02 452.97 C 778.37 426.99 760.85 402.22 743.84 377.14 C 730.21 356.59 715.99 336.45 701.37 316.60 C 697.18 311.05 691.01 307.31 683.91 307.31 C 670.82 307.29 658.65 313.71 648.85 321.96 Z" />

<path fill="#9eca56" d="M 444.55 162.10 C 448.33 163.24 454.35 163.77 455.29 168.66 C 456.83 182.99 455.87 197.46 455.96 211.85 C 452.29 212.15 448.63 212.45 444.98 212.76 C 444.01 195.89 443.75 178.98 444.55 162.10 Z" />
<path fill="#9eca56" d="M 392.83 240.91 C 378.48 247.27 364.03 254.03 351.99 264.29 C 332.82 276.55 317.90 294.72 306.08 313.94 C 285.28 345.18 274.82 383.43 278.28 420.97 C 280.89 449.66 288.26 479.05 305.64 502.54 C 327.35 486.97 349.74 472.37 371.10 456.33 C 402.31 436.28 432.32 414.33 464.02 395.01 C 502.01 370.43 541.20 347.79 579.53 323.75 C 589.82 318.00 599.69 311.55 609.86 305.59 C 591.44 279.69 567.56 256.58 538.00 244.03 C 523.99 237.24 509.03 232.55 493.65 230.19 C 459.79 223.94 424.96 229.52 392.83 240.91 Z" />
<path fill="#9eca56" d="M 238.73 287.70 C 243.65 285.02 249.72 284.47 254.74 287.18 C 267.45 293.32 280.43 298.88 293.11 305.08 C 291.51 307.79 289.90 310.50 288.27 313.19 C 279.47 309.09 270.83 304.61 261.70 301.27 C 253.42 298.01 244.33 295.07 238.73 287.70 Z" />
<path fill="#9eca56" d="M656.54 316.233c2.11-2.523 14.28-8.943 27.37-8.923 7.1 0 13.27 3.74 17.46 9.29 14.62 19.85 28.84 39.99 42.47 60.54 17.01 25.08 34.53 49.85 50.18 75.83 9.29 14.76 8.41 35.52-3.3 48.75-4.709 3.009-11.503 8.473-26.231-4.685-2.669-2.745-13.209-21.955-25.579-39.945-21.02-29.52-39.99-60.43-61.04-89.93-9.57-15.13-29.028-42.311-21.33-50.927Z" />
<path fill="#9eca56" d="M 573.24 352.26 C 550.23 365.73 527.46 379.61 505.11 394.14 C 460.00 423.25 415.16 452.83 371.36 483.87 C 353.58 496.13 336.06 508.76 318.05 520.69 C 325.14 528.85 333.87 535.28 342.93 541.11 C 356.79 549.76 367.88 562.92 373.82 578.16 C 376.87 586.45 375.47 595.45 377.15 603.98 C 379.96 610.62 385.10 615.98 388.95 622.01 C 402.74 642.53 416.37 663.15 430.62 683.36 C 444.93 703.73 457.80 725.20 473.34 744.68 C 483.45 754.29 495.01 765.46 510.00 765.11 C 522.17 765.31 532.48 758.27 542.79 752.81 C 571.83 735.91 599.59 716.95 627.85 698.79 C 663.67 674.84 699.89 651.38 733.96 624.94 C 749.06 612.70 765.29 598.49 768.39 578.14 C 768.07 565.88 766.00 553.34 758.95 543.02 C 712.95 469.97 666.19 397.40 619.76 324.63 C 604.14 333.66 589.22 343.86 573.24 352.26 Z"/>
<path fill="#9eca56" d="M 183.09 483.05 C 194.10 480.84 205.84 482.15 215.98 487.04 C 242.39 499.89 268.27 513.81 293.89 528.14 C 314.35 541.22 337.23 551.95 353.03 570.95 C 360.98 579.85 362.19 592.52 358.34 603.54 C 349.81 605.18 340.95 606.92 332.35 604.61 C 311.76 600.02 292.90 590.17 274.11 580.93 C 256.58 572.45 239.74 562.64 222.59 553.44 C 204.52 544.76 187.52 534.09 170.64 523.34 C 164.06 519.55 159.85 513.19 156.40 506.66 C 162.34 496.15 171.03 486.29 183.09 483.05 Z" />
<path fill="#9eca56" d="M 773.24 647.83 C 772.26 631.29 780.13 616.18 783.59 600.36 C 793.79 603.19 803.10 608.38 813.02 611.99 C 829.02 618.52 845.23 624.62 860.68 632.39 C 871.74 638.46 874.86 652.33 874.20 664.01 C 874.60 671.84 870.73 678.96 867.58 685.89 C 855.44 687.63 843.58 682.95 832.06 679.97 C 818.36 676.33 805.13 671.21 792.00 665.93 C 784.29 662.11 774.66 657.31 773.24 647.83 Z" />
<path fill="#9eca56" d="M 675.65 710.80 C 678.73 706.35 680.64 701.27 682.85 696.38 C 699.48 704.00 716.88 710.03 732.70 719.32 C 745.09 726.75 753.86 740.38 753.93 755.03 C 755.23 764.02 751.06 772.69 746.30 780.06 C 728.06 776.69 711.09 768.79 693.43 763.39 C 679.66 758.45 664.99 755.29 652.72 746.98 C 656.53 732.82 668.25 722.98 675.65 710.80 Z" />

<path fill="#7ca645" d="M 436.49 169.41 C 438.12 166.03 441.78 164.39 444.55 162.10 C 443.75 178.98 444.01 195.89 444.98 212.76 C 441.98 213.18 439.04 213.64 436.06 214.08 C 436.09 199.19 435.32 184.27 436.49 169.41 Z" />
<path fill="#7ca645" d="M 238.98 300.99 C 235.87 296.97 237.83 292.06 238.73 287.70 C 244.33 295.07 253.42 298.01 261.70 301.27 C 270.83 304.61 279.47 309.09 288.27 313.19 C 286.76 315.77 285.25 318.37 283.75 320.96 C 271.07 315.70 258.55 310.03 245.59 305.46 C 243.12 304.47 240.37 303.46 238.98 300.99 Z" />
<path fill="#7ca645" d="M278.28 420.97c-3.46-37.54 7-75.79 27.8-107.03-4.6 12.64-2.16 26.44-.55 39.4 3.86 29.58 13.96 58.6 30.85 83.29l20.412 30.151c-7.052 5.589-29.442 20.189-51.152 35.759-17.38-23.49-24.75-52.88-27.36-81.57Z" />
<path fill="#7ca645" d="M318.05 520.69l50.734-35.006C412.15 549.51 444.03 590.07 473.9 632.08c14.02 18.29 27.42 37.09 42.55 54.5 6.88 7.97 15.64 15.3 26.33 17.14 15.28.24 29.97-5.17 43.75-11.32 64.96-30.75 121.98-75.1 181.86-114.26-3.1 20.35-19.33 34.56-34.43 46.8-34.07 26.44-70.29 49.9-106.11 73.85-28.26 18.16-56.02 37.12-85.06 54.02-10.31 5.46-20.62 12.5-32.79 12.3-14.99.35-26.55-10.82-36.66-20.43-15.54-19.48-28.41-40.95-42.72-61.32-14.25-20.21-27.88-40.83-41.67-61.35-3.85-6.03-8.99-11.39-11.8-18.03-1.68-8.53-.28-17.53-3.33-25.82-5.94-15.24-17.03-28.4-30.89-37.05-9.06-5.83-17.79-12.26-24.88-20.42Z" />
<path fill="#7ca645" d="M 153.39 526.82 C 152.56 519.92 155.05 513.32 156.40 506.66 C 159.85 513.19 164.06 519.55 170.64 523.34 C 187.52 534.09 204.52 544.76 222.59 553.44 C 239.74 562.64 256.58 572.45 274.11 580.93 C 292.90 590.17 311.76 600.02 332.35 604.61 C 340.95 606.92 349.81 605.18 358.34 603.54 C 354.28 612.99 349.36 622.77 340.08 628.11 C 330.86 634.80 318.19 634.17 308.15 629.65 C 266.40 611.99 227.12 589.23 187.36 567.61 C 177.17 561.61 166.60 555.28 159.54 545.54 C 155.82 540.01 154.44 533.29 153.39 526.82 Z" />
<path fill="#7ca645" d="M 779.20 597.05 C 780.66 598.14 782.12 599.25 783.59 600.36 C 780.13 616.18 772.26 631.29 773.24 647.83 C 774.66 657.31 784.29 662.11 792.00 665.93 C 805.13 671.21 818.36 676.33 832.06 679.97 C 843.58 682.95 855.44 687.63 867.58 685.89 C 861.02 691.98 854.52 699.45 845.31 701.25 C 832.72 703.12 820.68 697.78 808.91 694.17 C 775.60 683.97 743.28 670.78 709.99 660.50 C 727.60 650.25 743.93 637.73 758.79 623.79 C 767.13 616.14 773.50 606.75 779.20 597.05 Z" />
<path fill="#7ca645" d="M 664.65 692.60 C 670.84 689.74 677.14 694.41 682.85 696.38 C 680.64 701.27 678.73 706.35 675.65 710.80 C 668.25 722.98 656.53 732.82 652.72 746.98 C 664.99 755.29 679.66 758.45 693.43 763.39 C 711.09 768.79 728.06 776.69 746.30 780.06 C 740.07 786.31 733.92 793.37 725.29 796.23 C 715.53 799.05 706.28 794.71 697.21 791.77 C 671.04 782.51 644.83 773.32 619.11 762.88 C 606.70 757.89 594.06 753.26 582.44 746.58 C 609.76 728.47 637.73 711.30 664.65 692.60 Z" />

<path fill="#dcd7cc" d="M 523.91 189.90 C 526.70 187.14 530.24 185.43 533.93 184.27 C 532.82 197.22 528.44 209.56 525.57 222.17 C 516.21 219.11 506.64 216.86 496.98 215.01 C 506.26 206.97 514.81 198.13 523.91 189.90 Z" />
<path fill="#dcd7cc" d="M 13.42 263.65 C 10.11 256.03 11.77 247.84 12.92 239.97 C 24.52 260.34 43.74 274.66 58.22 292.79 C 64.01 300.27 68.11 309.01 69.59 318.39 C 79.54 366.94 88.88 416.62 112.06 460.97 C 120.28 476.35 128.39 492.38 141.05 504.64 C 131.94 530.43 143.99 561.07 167.89 574.14 C 205.50 595.71 243.56 616.55 282.53 635.57 C 297.20 642.10 312.24 650.16 328.89 648.86 C 340.80 647.21 351.76 640.60 359.26 631.27 C 362.50 627.44 365.56 623.45 369.13 619.94 C 377.87 633.76 387.11 647.26 396.14 660.89 C 404.86 674.02 414.99 686.26 422.26 700.31 C 376.05 713.05 327.92 714.93 280.58 720.58 C 253.90 723.58 229.58 736.51 208.37 752.39 C 202.34 756.63 192.49 762.41 185.85 756.17 C 175.02 743.87 172.37 726.85 170.68 711.15 C 169.35 701.27 169.68 690.99 166.41 681.46 C 160.97 669.89 152.13 660.47 145.01 649.97 C 126.99 623.94 110.81 596.60 96.89 568.17 C 84.71 541.95 72.97 515.39 65.57 487.37 C 54.45 444.98 47.45 401.57 43.10 358.00 C 41.11 340.67 42.66 322.51 35.94 306.03 C 30.54 290.83 19.13 278.69 13.42 263.65 Z" />
<path fill="#dcd7cc" d="M 275.23 249.99 C 283.28 250.48 290.07 255.22 296.91 259.00 C 304.91 263.63 313.59 267.35 322.83 268.57 C 315.06 275.21 309.32 283.87 301.88 290.75 C 298.11 290.13 294.00 288.85 291.36 285.99 C 285.95 274.02 279.57 262.41 275.23 249.99 Z" />
<path fill="#dcd7cc" d="M 198.12 324.21 C 214.52 324.64 230.46 329.10 246.01 333.99 C 254.29 336.35 262.07 340.54 270.74 341.39 C 272.83 339.60 274.01 337.03 275.39 334.71 L 275.86 333.89 C 273.73 345.36 268.61 356.07 266.43 367.56 C 260.56 397.00 260.22 427.82 268.17 456.93 C 272.47 474.24 280.13 490.43 287.87 506.42 C 268.90 497.73 251.00 486.94 232.30 477.70 C 237.97 469.63 242.68 460.91 247.12 452.12 C 250.27 444.83 253.91 436.72 251.38 428.67 C 249.89 422.59 244.19 418.86 239.13 415.89 C 225.61 408.02 207.52 410.04 195.69 399.00 C 198.08 396.95 200.40 394.66 203.40 393.54 C 219.12 388.00 237.51 392.40 251.89 382.70 C 250.10 377.96 248.23 373.07 244.70 369.32 C 230.90 352.53 208.54 343.91 198.12 324.21 Z" />

<path fill="#b4db74" d="M392.83 240.91C424.96 229.52 459.79 223.94 493.65 230.19 509.03 232.55 523.99 237.24 538 244.03 567.56 256.58 591.44 279.69 609.86 305.59 537.881 234.4 438.397 211.568 351.99 264.29 364.03 254.03 378.48 247.27 392.83 240.91Z" />

<path fill="#000000" d="M 552.00 94.04 C 563.64 85.47 576.33 76.66 591.17 75.31 C 602.49 74.07 612.71 82.66 615.82 93.16 C 621.70 111.79 616.91 131.76 620.36 150.76 C 622.13 156.69 625.82 161.77 628.81 167.13 C 635.92 179.72 643.83 191.89 649.99 205.00 C 663.00 232.75 673.77 261.70 680.45 291.66 C 687.62 293.11 695.26 293.37 701.61 297.42 C 710.00 303.34 716.18 311.68 721.94 320.04 C 750.28 360.57 778.74 401.08 805.03 442.99 C 811.42 454.13 816.80 466.80 814.87 479.94 C 814.62 497.37 803.72 513.29 788.84 521.73 C 782.44 525.26 775.26 526.94 768.39 529.32 C 773.15 539.41 779.97 548.81 781.82 560.03 C 783.78 567.98 783.32 576.19 783.54 584.30 C 806.86 593.59 830.16 602.98 853.34 612.63 C 861.56 616.29 870.26 619.72 876.53 626.47 C 883.35 632.81 886.54 641.84 889.00 650.57 L 889.00 671.54 C 884.42 693.22 867.53 712.96 845.33 717.37 C 831.01 718.74 817.49 712.72 804.03 708.83 C 785.70 702.38 766.86 697.44 748.77 690.29 C 739.23 686.60 729.27 684.11 719.79 680.26 C 711.37 676.87 702.93 673.41 694.04 671.44 C 691.32 674.67 688.56 677.88 686.05 681.29 C 703.46 689.01 721.36 695.76 738.06 704.99 C 761.94 717.71 775.15 748.48 766.41 774.35 C 759.69 790.58 746.99 805.04 730.32 811.36 C 719.72 815.82 708.61 812.00 698.38 808.63 C 657.86 794.21 616.93 780.46 578.03 761.98 C 572.94 759.75 566.46 756.92 561.17 760.23 C 547.19 768.08 533.42 777.07 517.58 780.68 C 505.04 783.80 492.38 778.79 482.10 771.86 C 459.06 757.32 446.08 732.41 430.73 710.84 C 404.58 717.04 378.19 722.30 351.49 725.45 C 321.13 729.49 290.13 729.50 260.39 737.46 C 242.46 743.21 226.47 753.49 211.02 764.00 C 203.85 769.09 193.39 774.44 184.96 769.04 C 175.90 763.72 170.09 754.33 166.19 744.83 C 158.77 726.49 159.08 706.38 155.71 687.17 C 154.76 681.72 151.16 677.32 148.08 672.94 C 120.52 636.66 97.09 597.26 78.21 555.80 C 63.45 522.66 51.53 488.07 45.48 452.23 C 39.80 424.55 35.68 396.57 32.59 368.49 C 30.25 348.61 31.92 327.87 25.30 308.69 C 17.59 291.57 4.63 277.06 0.00 258.49 L 0.00 246.41 C 1.50 239.09 4.15 231.86 9.34 226.29 C 14.09 220.27 22.06 218.36 29.28 217.28 C 46.89 215.96 64.36 220.10 81.97 218.77 C 90.60 218.68 98.48 214.83 106.01 211.01 C 158.59 184.38 211.34 157.12 267.92 139.89 C 329.66 121.24 393.82 111.96 458.02 107.17 C 482.72 105.80 507.45 104.55 532.09 102.25 C 539.47 101.89 546.28 98.53 552.00 94.04 M 584.10 88.10 C 571.39 91.96 561.08 100.80 550.55 108.51 C 540.62 114.32 528.50 113.23 517.46 114.65 C 435.69 119.33 353.16 126.07 274.25 149.41 C 235.76 160.90 198.72 176.80 162.83 194.75 C 139.96 205.55 117.88 218.01 94.41 227.51 C 89.05 229.67 83.28 231.33 77.44 230.60 C 60.64 229.97 43.72 226.20 26.97 229.00 C 20.36 229.44 16.07 234.79 12.92 239.97 C 11.77 247.84 10.11 256.03 13.42 263.65 C 19.13 278.69 30.54 290.83 35.94 306.03 C 42.66 322.51 41.11 340.67 43.10 358.00 C 47.45 401.57 54.45 444.98 65.57 487.37 C 72.97 515.39 84.71 541.95 96.89 568.17 C 110.81 596.60 126.99 623.94 145.01 649.97 C 152.13 660.47 160.97 669.89 166.41 681.46 C 169.68 690.99 169.35 701.27 170.68 711.15 C 172.37 726.85 175.02 743.87 185.85 756.17 C 192.49 762.41 202.34 756.63 208.37 752.39 C 229.58 736.51 253.90 723.58 280.58 720.58 C 327.92 714.93 376.05 713.05 422.26 700.31 C 414.99 686.26 404.86 674.02 396.14 660.89 C 387.11 647.26 377.87 633.76 369.13 619.94 C 365.56 623.45 362.50 627.44 359.26 631.27 C 351.76 640.60 340.80 647.21 328.89 648.86 C 312.24 650.16 297.20 642.10 282.53 635.57 C 243.56 616.55 205.50 595.71 167.89 574.14 C 143.99 561.07 131.94 530.43 141.05 504.64 C 144.96 496.71 148.91 488.58 155.36 482.35 C 164.15 472.35 177.39 466.95 190.56 466.43 C 205.38 465.75 219.41 470.95 232.30 477.70 C 251.00 486.94 268.90 497.73 287.87 506.42 C 280.13 490.43 272.47 474.24 268.17 456.93 C 260.22 427.82 260.56 397.00 266.43 367.56 C 268.61 356.07 273.73 345.36 275.86 333.89 L 275.39 334.71 C 263.42 328.41 250.35 324.68 238.14 318.92 C 228.94 314.43 220.75 304.83 222.09 294.05 C 221.63 279.66 235.94 265.90 250.53 269.58 C 264.87 273.11 277.34 281.57 291.36 285.99 C 294.00 288.85 298.11 290.13 301.88 290.75 C 309.32 283.87 315.06 275.21 322.83 268.57 C 340.88 250.56 362.70 236.47 386.51 227.36 C 397.47 222.43 409.41 220.49 420.70 216.54 C 422.50 213.88 421.46 210.33 421.66 207.44 C 421.24 193.32 419.85 179.01 421.97 164.99 C 426.54 143.76 461.81 141.86 468.91 162.06 C 473.50 178.29 470.01 195.46 471.01 212.07 C 479.63 213.30 488.29 214.34 496.98 215.01 C 506.64 216.86 516.21 219.11 525.57 222.17 C 572.30 237.71 611.31 272.98 633.38 316.80 C 642.31 304.92 655.68 298.04 669.26 292.92 C 667.07 281.64 663.90 270.57 660.39 259.65 C 653.47 240.16 647.03 220.33 636.73 202.30 C 628.20 185.71 617.75 170.14 609.82 153.25 C 604.02 133.69 612.60 111.98 604.00 92.97 C 600.22 85.72 590.88 86.42 584.10 88.10 M 436.49 169.41 C 435.32 184.27 436.09 199.19 436.06 214.08 C 439.04 213.64 441.98 213.18 444.98 212.76 C 448.63 212.45 452.29 212.15 455.96 211.85 C 455.87 197.46 456.83 182.99 455.29 168.66 C 454.35 163.77 448.33 163.24 444.55 162.10 C 441.78 164.39 438.12 166.03 436.49 169.41 M 392.83 240.91 C 378.48 247.27 364.03 254.03 351.99 264.29 C 332.82 276.55 317.90 294.72 306.08 313.94 C 285.28 345.18 274.82 383.43 278.28 420.97 C 280.89 449.66 288.26 479.05 305.64 502.54 C 327.35 486.97 349.74 472.37 371.10 456.33 C 402.31 436.28 432.32 414.33 464.02 395.01 C 502.01 370.43 541.20 347.79 579.53 323.75 C 589.82 318.00 599.69 311.55 609.86 305.59 C 591.44 279.69 567.56 256.58 538.00 244.03 C 523.99 237.24 509.03 232.55 493.65 230.19 C 459.79 223.94 424.96 229.52 392.83 240.91 M 238.73 287.70 C 237.83 292.06 235.87 296.97 238.98 300.99 C 240.37 303.46 243.12 304.47 245.59 305.46 C 258.55 310.03 271.07 315.70 283.75 320.96 C 285.25 318.37 286.76 315.77 288.27 313.19 C 289.90 310.50 291.51 307.79 293.11 305.08 C 280.43 298.88 267.45 293.32 254.74 287.18 C 249.72 284.47 243.65 285.02 238.73 287.70 M 648.85 321.96 C 646.48 326.15 641.47 331.25 644.74 336.20 C 681.95 393.50 718.92 450.98 755.10 508.94 C 758.32 517.77 767.90 512.98 774.59 512.01 C 780.37 509.26 786.11 506.27 790.72 501.72 C 802.43 488.49 803.31 467.73 794.02 452.97 C 778.37 426.99 760.85 402.22 743.84 377.14 C 730.21 356.59 715.99 336.45 701.37 316.60 C 697.18 311.05 691.01 307.31 683.91 307.31 C 670.82 307.29 658.65 313.71 648.85 321.96 M 573.24 352.26 C 550.23 365.73 527.46 379.61 505.11 394.14 C 460.00 423.25 415.16 452.83 371.36 483.87 C 353.58 496.13 336.06 508.76 318.05 520.69 C 325.14 528.85 333.87 535.28 342.93 541.11 C 356.79 549.76 367.88 562.92 373.82 578.16 C 376.87 586.45 375.47 595.45 377.15 603.98 C 379.96 610.62 385.10 615.98 388.95 622.01 C 402.74 642.53 416.37 663.15 430.62 683.36 C 444.93 703.73 457.80 725.20 473.34 744.68 C 483.45 754.29 495.01 765.46 510.00 765.11 C 522.17 765.31 532.48 758.27 542.79 752.81 C 571.83 735.91 599.59 716.95 627.85 698.79 C 663.67 674.84 699.89 651.38 733.96 624.94 C 749.06 612.70 765.29 598.49 768.39 578.14 C 768.07 565.88 766.00 553.34 758.95 543.02 C 712.95 469.97 666.19 397.40 619.76 324.63 C 604.14 333.66 589.22 343.86 573.24 352.26 M 183.09 483.05 C 171.03 486.29 162.34 496.15 156.40 506.66 C 155.05 513.32 152.56 519.92 153.39 526.82 C 154.44 533.29 155.82 540.01 159.54 545.54 C 166.60 555.28 177.17 561.61 187.36 567.61 C 227.12 589.23 266.40 611.99 308.15 629.65 C 318.19 634.17 330.86 634.80 340.08 628.11 C 349.36 622.77 354.28 612.99 358.34 603.54 C 362.19 592.52 360.98 579.85 353.03 570.95 C 337.23 551.95 314.35 541.22 293.89 528.14 C 268.27 513.81 242.39 499.89 215.98 487.04 C 205.84 482.15 194.10 480.84 183.09 483.05 M 779.20 597.05 C 773.50 606.75 767.13 616.14 758.79 623.79 C 743.93 637.73 727.60 650.25 709.99 660.50 C 743.28 670.78 775.60 683.97 808.91 694.17 C 820.68 697.78 832.72 703.12 845.31 701.25 C 854.52 699.45 861.02 691.98 867.58 685.89 C 870.73 678.96 874.60 671.84 874.20 664.01 C 874.86 652.33 871.74 638.46 860.68 632.39 C 845.23 624.62 829.02 618.52 813.02 611.99 C 803.10 608.38 793.79 603.19 783.59 600.36 C 782.12 599.25 780.66 598.14 779.20 597.05 M 664.65 692.60 C 637.73 711.30 609.76 728.47 582.44 746.58 C 594.06 753.26 606.70 757.89 619.11 762.88 C 644.83 773.32 671.04 782.51 697.21 791.77 C 706.28 794.71 715.53 799.05 725.29 796.23 C 733.92 793.37 740.07 786.31 746.30 780.06 C 751.06 772.69 755.23 764.02 753.93 755.03 C 753.86 740.38 745.09 726.75 732.70 719.32 C 716.88 710.03 699.48 704.00 682.85 696.38 C 677.14 694.41 670.84 689.74 664.65 692.60 Z" />
<path fill="#000000" d="M 510.63 273.51 C 511.79 273.26 512.96 273.01 514.14 272.78 C 515.39 275.32 516.78 277.86 517.31 280.68 C 519.62 289.02 513.93 296.78 508.52 302.52 C 500.52 309.82 489.26 312.97 478.63 310.39 C 474.54 308.47 471.03 305.50 467.81 302.39 C 478.14 298.72 490.78 302.34 499.60 294.53 C 506.51 289.71 508.21 280.96 510.63 273.51 Z" />
<path fill="#000000" d="M 386.75 352.89 C 389.53 355.15 392.06 358.09 392.33 361.85 C 393.14 371.17 387.87 380.07 380.70 385.66 C 371.99 392.46 361.42 399.01 349.83 397.27 C 340.53 395.06 333.85 386.65 332.40 377.41 C 340.70 379.57 347.71 386.24 356.84 384.74 C 365.24 383.02 373.32 378.44 378.09 371.14 C 381.68 365.42 383.88 358.97 386.75 352.89 Z" />

</svg>
