<?xml version="1.0" encoding="UTF-8" ?>
<svg width="889" height="889" viewBox="0 0 889 889" version="1.1" xmlns="http://www.w3.org/2000/svg" fill="none">

<defs>

<path
  id="pillow"
  d="M83 228q-52-8-55 2-8 27 13 49 19 21 14 52-2 59 19 156 18 101 81 166 23 20 24 50 0 31 10 48 10 25 33 9 53-41 124-39 45-3 95-14l314-81-64-331q-10-60-55-131-12-12-8-51-3-32-18-33-21 0-48 24-9 6-32 5-214-3-392 100-34 20-55 19Z"
  />
<path
  id="pillow-shadow"
  d="M539 230 548 192Q553 179 539 189 516 209 510 218L394 255Q350 284 303 255 283 243 295 261 304 279 311 297L290 336Q291 348 238 328 196 315 230 344 255 360 265 378 268 383 263 385 258 389 228 391 194 399 231 409 294 417 257 469 236 488 193 478 178 501 146 498 107 448 88 332 84 297 54 272 27 251 28 230 20 257 41 279 60 300 55 331 53 390 74 487 92 588 155 653 178 673 179 703 179 734 189 751 199 776 222 760 275 719 346 721 391 718 441 707L755 626 635 312Z"
  />
<path
  id="leg-left"
  d="M500 727l189 71a20 20 0 0030-91L512 637Z"
  />
<path
  id="leg-left-shadow"
  d="M669 690l-52 48q-2 2 2 4l81 30q30 11 47-10l-14 29-29 11-147-56 92-62Z"
  />
<path
  id="leg-right"
  d="M516 604l287 99a20 20 0 0030-86L528 509Z"
  />
<path
  id="leg-right-shadow"
  d="M783 598q4 11-39 53-4 4 2 6l70 24q30 11 47-10l-17 28-33 9-123-45Z"
  />
<path
  id="arm-lowered"
  d="M638 361A45 45 0 01716 316L806 451A1 1 0 01723 493Z"
  />
<path
  id="arm-lowered-shadow"
  d="M656 300q-11 13-1 26L757 484q19 28 51 0l-19 30-40 4L628 324Z"
  />
<path
  id="antenna-left"
  d="M358 353 239 312a1 1 0 0113-35l117 52Z"
  />
<path
  id="antenna-left-highlight"
  d="M227 292q8-38 73 14-57-25-73-14Z"
  />
<path
  id="antenna-right"
  d="M461 267l3-95a1 1 0 00-36 3l8 93Z"
  />
<path
  id="antenna-right-highlight"
  d="M430 164q27-1 34 35 6-61-34-35Z"
  />
<path
  id="body"
  d="M303 517A1 1 0 01620 310ZL467 750A50 50 0 00539 765L761 615A50 50 0 00767 546L620 310Z"
  />
<path
  id="body-shadow"
  d="M376 237Q217 340 302 516L478 761 522 774 754 622 764 604 576 724Q544 744 532 731L356 481Q256 328 376 237Z"
  />
<path
  id="body-highlight"
  d="M360 254q129-70 241 29l15 32q-99-111-256-61Z"
  />
<path
  id="eyes"
  d="M335 385q20 27 50-4 10-12 7-22-4-13-8 1-16 36-45 20-11-6-4 5Zm139-77q22 8 34-5 11-11 9-23-4-15-9 1-5 19-30 20-16-1-4 7Z"
  />
<path
  id="arm-raised"
  d="M306 636a1 1 0 0039-85l-126-69a1 1 0 00-42 89z"
  />
<path
  id="arm-raised-shadow"
  d="M154 500q0 22 12 28l155 79q27 12 52-5l-40 43-179-90Z"
  />

</defs>
<style>
  .stroke-black { stroke: #091008; stroke-width: 15; stroke-linecap: round; stroke-linejoin: round; }
  .stroke-bg { stroke: #6d7b69; stroke-width: 52; stroke-linecap: round; stroke-linejoin: round; }
  .fill-bg { fill: #6d7b69; }
  .fill-body { fill: #82cc57; }
  .fill-body-shadow { fill: #5ba232; }
  .fill-body-highlight { fill: #ade78b; }
  .fill-eyes { fill: #091008; }
  .fill-pillow { fill: #ebf3e5; }
  .fill-pillow-shadow { fill: #a4aa98; }
</style>

<circle cx="50%" cy="50%" r="45%" class="fill-bg" />
<use href="#leg-left" class="stroke-bg"/>
<use href="#leg-right" class="stroke-bg"/>
<use href="#pillow" class="stroke-bg"/>

<use href="#pillow" class="fill-pillow"/>
<use href="#pillow-shadow" class="fill-pillow-shadow"/>
<use href="#pillow" class="stroke-black"/>

<use href="#leg-left" class="fill-body"/>
<use href="#leg-left-shadow" class="fill-body-shadow"/>
<use href="#leg-left" class="stroke-black"/>
<use href="#leg-right" class="fill-body"/>
<use href="#leg-right-shadow" class="fill-body-shadow"/>
<use href="#leg-right" class="stroke-black"/>

<use href="#arm-lowered" class="fill-body"/>
<use href="#arm-lowered-shadow" class="fill-body-shadow"/>
<use href="#arm-lowered" class="stroke-black"/>

<use href="#antenna-left" class="fill-body-shadow"/>
<use href="#antenna-left-highlight" class="fill-body"/>
<use href="#antenna-left" class="stroke-black"/>
<use href="#antenna-right" class="fill-body"/>
<use href="#antenna-right-highlight" class="fill-body-highlight"/>
<use href="#antenna-right" class="stroke-black"/>

<use href="#body" class="fill-body"/>
<use href="#body-shadow" class="fill-body-shadow"/>
<use href="#body-highlight" class="fill-body-highlight"/>
<use href="#body" class="stroke-black"/>

<use href="#eyes" class="fill-eyes"/>

<use href="#arm-raised" class="fill-body"/>
<use href="#arm-raised-shadow" class="fill-body-shadow"/>
<use href="#arm-raised" class="stroke-black"/>

</svg>
